<svg xmlns="http://www.w3.org/2000/svg" xmlns:xlink="http://www.w3.org/1999/xlink" id="_Слой_1" data-name="Слой 1" width="500" height="500" viewBox="0 0 500 500">
  <defs>
    <style>
      .cls-1 {
        fill: #fff;
      }

      .cls-2 {
        fill: url(#_Безымянный_градиент);
      }
    </style>
    <linearGradient id="_Безымянный_градиент" data-name="Безымянный градиент" x1="98.9974498" y1=".3286891" x2="405.8154135" y2="511.6925015" gradientTransform="translate(0 502) scale(1 -1)" gradientUnits="userSpaceOnUse">
      <stop offset="0" stop-color="#6f01fb"/>
      <stop offset="1" stop-color="#ff49d7"/>
    </linearGradient>
  </defs>
  <path class="cls-2" d="M0,234.7304672c0-82.1632743,0-123.2453138,15.9900784-154.6273455C30.0553124,52.4985939,52.4985939,30.0553124,80.1031217,15.9900784,111.4851534,0,152.5671929,0,234.7304672,0h30.5390507c82.1633041,0,123.2453287,0,154.627353,15.9900784,27.6046991,14.065234,50.0476658,36.5085155,64.1132891,64.1130432,15.98984,31.3820317,15.98984,72.4640712,15.98984,154.6273455v30.5390507c0,82.1633041,0,123.2453287-15.98984,154.627353-14.0656233,27.6046991-36.50859,50.0476658-64.1132891,64.1132891-31.3820243,15.98984-72.4640489,15.98984-154.627353,15.98984h-30.5390507c-82.1632743,0-123.2453138,0-154.6273455-15.98984-27.6045278-14.0656233-50.0478093-36.50859-64.1130432-64.1132891C0,388.5148466,0,347.432822,0,265.2695179v-30.5390507Z"/>
  <path class="cls-1" d="M378.3210814,176.4499992c-17.9070234,0-34.0976417,5.3968728-47.9046702,14.6656185v-84.5968649h-38.1984413v156.0156271c0,47.4663973,38.6179686,85.6648386,85.8742297,85.6648386,47.2570062,0,86.3132775-37.9695296,86.3132775-86.1031115,0-48.1343865-38.1976664-85.6648535-86.1031413-85.6648535l.0187457.0187457ZM204.9515694,273.5570371l-34.9562615-91.0617262h-26.7562419l-35.1656303,91.0617262-35.1662487-91.0617262H31.2380474l61.5025777,160.1164192h26.7554671l36.9015634-95.3718871,37.1117145,95.3718871h26.7554671l61.2929612-160.1164192h-41.4406061l-35.1656228,91.0617262ZM378.1117201,310.0202978c-25.8976519,0-47.6953089-20.7109153-47.6953089-47.6960838,0-26.9843638,20.5007792-47.4663973,47.9046702-47.4663973,27.4046957,0,47.9054749,21.3593692,47.9054749,47.4663973,0,26.1078179-21.797657,47.6960838-48.1148362,47.6960838Z"/>
</svg>